<svg width="537" height="76" viewBox="0 0 537 76" fill="none" xmlns="http://www.w3.org/2000/svg">
<g id="THE SOUCE ID_01" opacity="0.64" filter="url(#filter0_i_3206_139)">
<path d="M504.781 75.6305C480.395 75.6305 473.399 71.893 473.399 49.1378V47.8187C473.399 25.1735 481.794 21.1062 502.482 21.1062H505.881C527.269 21.1062 535.864 24.7338 535.864 43.5315V52.4357H491.589V53.535C491.589 61.7796 493.787 62.8789 504.881 62.8789H506.88C516.974 62.8789 518.673 61.7796 518.673 57.3824V56.9427H536.064V58.1519C536.064 72.1128 526.969 75.6305 508.379 75.6305H504.781ZM491.589 41.6627H518.274V40.6734C518.274 34.8472 516.475 33.0883 505.181 33.0883H504.281C493.487 33.0883 491.589 34.8472 491.589 41.6627Z" fill="white"/>
<path d="M446.562 75.6305C422.176 75.6305 415.58 71.1235 415.58 48.918V47.4889C415.58 25.3934 422.176 21.1062 446.562 21.1062H451.06C473.547 21.1062 479.244 25.943 479.244 40.5635V43.4216H461.454V42.8719C461.454 37.1557 458.855 35.7266 450.46 35.7266H447.162C435.868 35.7266 434.069 37.1557 434.069 47.4889V48.918C434.069 59.2512 435.968 60.6803 447.162 60.6803H450.46C460.654 60.6803 461.454 58.4817 461.454 53.0952V52.7655H479.244V55.6236C479.244 70.1341 473.847 75.6305 451.06 75.6305H446.562Z" fill="white"/>
<path d="M369.81 74.7511V21.9856H388.1V32.6486H388.4C390.698 25.5033 395.496 21.1062 406.389 21.1062H407.389C420.781 21.1062 423.78 26.4927 423.78 39.794C423.78 41.223 423.78 44.0812 423.58 46.0599H406.889V42.6521C406.889 37.2656 405.09 36.0564 398.594 36.0564H397.794C390.798 36.0564 388.4 39.1344 388.4 48.4783V74.7511H369.81Z" fill="white"/>
<path d="M332.287 75.6305C311.499 75.6305 306.702 70.244 306.702 49.6875V21.9856H325.291V47.9286C325.291 58.042 326.99 60.3505 338.084 60.3505H339.183C350.277 60.3505 353.176 57.1626 353.176 47.7088V21.9856H371.765V74.7511H353.176V66.0668H352.976C349.677 72.9922 343.881 75.6305 333.287 75.6305H332.287Z" fill="white"/>
<path d="M276.221 75.6305C251.635 75.6305 245.538 72.1128 245.538 48.918V47.4889C245.538 24.2941 251.835 21.1062 276.221 21.1062H280.719C305.305 21.1062 311.401 24.2941 311.401 47.4889V48.918C311.401 72.1128 305.305 75.6305 280.719 75.6305H276.221ZM276.821 60.7902H280.119C291.712 60.7902 293.211 59.2512 293.211 48.918V47.4889C293.211 37.1557 291.712 35.6167 280.119 35.6167H276.821C265.227 35.6167 263.728 37.1557 263.728 47.4889V48.918C263.728 59.2512 265.227 60.7902 276.821 60.7902Z" fill="white"/>
<path d="M217.995 75.6305C192.309 75.6305 188.811 71.1235 188.811 60.4604V58.2619H207.301V58.4817C207.301 62.1094 208.001 62.8789 217.295 62.8789H221.693C232.487 62.8789 233.686 61.9994 233.686 58.7016V58.2619C233.686 54.964 232.787 53.9747 219.094 53.9747C192.509 53.9747 189.311 50.5669 189.311 37.7053V36.606C189.311 25.3934 194.808 21.1062 216.196 21.1062H219.794C245.18 21.1062 249.178 24.6239 249.178 35.8365V37.2656H231.387V36.9358C231.387 33.7479 230.488 32.9784 220.893 32.9784H218.295C208.3 32.9784 207.301 33.8578 207.301 36.4961V36.9358C207.301 39.9039 208.101 40.6734 221.493 40.6734C246.179 40.6734 251.676 43.6414 251.676 56.9427V58.3718C251.676 72.1128 244.68 75.6305 222.193 75.6305H217.995Z" fill="white"/>
<path d="M144.456 75.6305C120.069 75.6305 113.073 71.893 113.073 49.1378V47.8187C113.073 25.1735 121.469 21.1062 142.157 21.1062H145.555C166.943 21.1062 175.538 24.7338 175.538 43.5315V52.4357H131.263V53.535C131.263 61.7796 133.462 62.8789 144.556 62.8789H146.555C156.649 62.8789 158.348 61.7796 158.348 57.3824V56.9427H175.738V58.1519C175.738 72.1128 166.643 75.6305 148.054 75.6305H144.456ZM131.263 41.6627H157.948V40.6734C157.948 34.8472 156.149 33.0883 144.856 33.0883H143.956C133.162 33.0883 131.263 34.8472 131.263 41.6627Z" fill="white"/>
<path d="M52.1755 74.7511V0H70.765V30.2302H70.9649C74.6629 23.8544 80.0598 21.1062 90.6539 21.1062H91.6533C111.942 21.1062 117.239 26.6026 117.239 47.0492V74.7511H98.6494V48.5882C98.6494 38.8046 96.9504 36.716 85.8566 36.716H84.7572C73.6634 36.716 70.765 40.2337 70.765 48.808V74.7511H52.1755Z" fill="white"/>
<path d="M30.7827 75.6305C13.6923 75.6305 8.99496 70.5738 8.99496 54.7442V35.9465H0V21.9856H8.99496V8.2446H27.2847V21.9856H56.3684V35.9465H27.2847V51.2265C27.2847 59.8009 28.2842 60.7902 34.3807 60.7902H35.3802C41.2769 60.7902 41.8765 59.4711 41.8765 53.2052V51.5563H57.6677V56.6129C57.6677 71.1234 51.671 75.6305 33.0815 75.6305H30.7827Z" fill="white"/>
</g>
<defs>
<filter id="filter0_i_3206_139" x="0" y="0" width="536.064" height="79.6304" filterUnits="userSpaceOnUse" color-interpolation-filters="sRGB">
<feFlood flood-opacity="0" result="BackgroundImageFix"/>
<feBlend mode="normal" in="SourceGraphic" in2="BackgroundImageFix" result="shape"/>
<feColorMatrix in="SourceAlpha" type="matrix" values="0 0 0 0 0 0 0 0 0 0 0 0 0 0 0 0 0 0 127 0" result="hardAlpha"/>
<feOffset dy="4"/>
<feGaussianBlur stdDeviation="2"/>
<feComposite in2="hardAlpha" operator="arithmetic" k2="-1" k3="1"/>
<feColorMatrix type="matrix" values="0 0 0 0 0 0 0 0 0 0 0 0 0 0 0 0 0 0 0.25 0"/>
<feBlend mode="normal" in2="shape" result="effect1_innerShadow_3206_139"/>
</filter>
</defs>
</svg>
